<svg height="384pt" viewBox="0 0 384.00091 384" width="384pt" xmlns="http://www.w3.org/2000/svg"><path d="m208 0c-1.597656 0-3.296875.0078125-4.320312.0820312-.007813 0-.023438 0-.03125 0-1.214844-.0507812-2.464844-.0820312-3.648438-.0820312-101.457031 0-184 82.535156-184 184 0 31.167969 7.929688 61.570312 22.863281 88.601562l-35.476562 65.101563c-.203125.371094-.386719.753906-.5625 1.136719-5.464844 12.226562-2.8632815 26.25 6.609375 35.730468 6.175781 6.175782 14.296875 9.4375 22.582031 9.429688 4.417969 0 8.890625-.917969 13.144531-2.824219.382813-.167969.761719-.359375 1.136719-.558593l65.105469-35.480469c27.03125 14.929687 57.4375 22.863281 88.597656 22.863281 101.457031 0 184-82.535156 184-184 0-1.367188-.03125-2.742188-.085938-4.113281.054688-1.292969.085938-2.613281.085938-3.886719 0-97.046875-78.949219-176-176-176zm-8 336c-28.375 0-56.015625-7.871094-79.933594-22.785156-.160156-.101563-.335937-.148438-.503906-.246094-.523438-.304688-1.066406-.550781-1.609375-.792969-.433594-.191406-.863281-.375-1.304687-.527343-.519532-.167969-1.039063-.296876-1.574219-.414063-.488281-.113281-.96875-.226563-1.457031-.28125-.527344-.066406-1.054688-.082031-1.585938-.097656-.496094-.015625-.980469-.03125-1.476562 0-.53125.03125-1.042969.121093-1.570313.210937-.511719.085938-1.007813.167969-1.511719.300782-.464844.128906-.917968.296874-1.375.464843-.5625.207031-1.105468.425781-1.632812.6875-.167969.089844-.351563.128907-.511719.21875l-71.847656 39.15625 39.160156-71.847656c.09375-.183594.144531-.375.230469-.558594.25-.503906.457031-1.023437.65625-1.550781.175781-.480469.351562-.945312.480468-1.433594.128907-.496094.214844-.992187.304688-1.496094.085938-.519531.175781-1.03125.207031-1.558593.03125-.503907.015625-1.015625 0-1.527344s-.023437-1.015625-.085937-1.519531c-.066406-.523438-.1875-1.027344-.296875-1.539063-.113281-.503906-.234375-1-.394531-1.488281-.148438-.46875-.351563-.917969-.550782-1.382812-.230468-.527344-.472656-1.039063-.757812-1.535157-.097656-.175781-.152344-.359375-.265625-.527343-14.921875-23.90625-22.792969-51.554688-22.792969-79.929688 0-83.816406 68.183594-152 152-152 .855469-.007812 1.777344-.007812 2.640625.046875.34375.027344 1.089844.035156 1.441406.035156.167969 0 .328125-.050781.496094-.050781.160156-.007812.3125.035156.472656.015625.957031-.0625 1.964844-.046875 2.949219-.046875 79.402344 0 144 64.601562 144 144 0 .960938.007812 1.984375-.046875 2.945312-.015625.320313.039063.625.039063.941407 0 .320312-.054688.632812-.039063.960937.054687 1.039063.046875 2.097656.046875 3.152344 0 83.816406-68.183594 152-152 152zm0 0"/><path d="m232 264h-16v-120c0-8.832031-7.167969-16-16-16h-24c-8.832031 0-16 7.167969-16 16s7.167969 16 16 16h8v104h-16c-8.832031 0-16 7.167969-16 16s7.167969 16 16 16h64c8.832031 0 16-7.167969 16-16s-7.167969-16-16-16zm0 0"/><path d="m200 104c13.234375 0 24-10.765625 24-24 0-13.230469-10.765625-24-24-24-13.230469 0-24 10.769531-24 24 0 13.234375 10.769531 24 24 24zm0 0"/></svg>